{
  "accessors": [
    {
      "bufferView": 2,
      "componentType": 5126,
      "count": 65533,
      "max": [
        34.995513916015625,
        33.15961837768555,
        18.11501121520996
      ],
      "min": [
        -26.81448745727539,
        -25.8179874420166,
        -18.227373123168945
      ],
      "type": "VEC3"
    },
    {
      "bufferView": 2,
      "byteOffset": 786396,
      "componentType": 5126,
      "count": 65533,
      "max": [
        0.9999942779541016,
        1.0,
        0.9999339580535889
      ],
      "min": [
        -0.9995985627174377,
        -1.0,
        -0.9999419450759888
      ],
      "type": "VEC3"
    },
    {
      "bufferView": 3,
      "componentType": 5126,
      "count": 65533,
      "max": [
        1.0,
        1.0,
        1.0,
        1.0
      ],
      "min": [
        0.0,
        0.0,
        0.0,
        1.0
      ],
      "type": "VEC4"
    },
    {
      "bufferView": 1,
      "componentType": 5126,
      "count": 65533,
      "max": [
        0.0,
        0.0
      ],
      "min": [
        0.0,
        0.0
      ],
      "type": "VEC2"
    },
    {
      "bufferView": 0,
      "componentType": 5125,
      "count": 73089,
      "type": "SCALAR"
    },
    {
      "bufferView": 2,
      "byteOffset": 1572792,
      "componentType": 5126,
      "count": 42136,
      "max": [
        34.61850357055664,
        31.324542999267578,
        17.212932586669922
      ],
      "min": [
        -24.717018127441406,
        -24.807764053344727,
        -18.316251754760742
      ],
      "type": "VEC3"
    },
    {
      "bufferView": 2,
      "byteOffset": 2078424,
      "componentType": 5126,
      "count": 42136,
      "max": [
        0.9987635016441345,
        0.9999925494194031,
        0.9998155236244202
      ],
      "min": [
        -0.9999193549156189,
        -0.9999590516090393,
        -0.999800980091095
      ],
      "type": "VEC3"
    },
    {
      "bufferView": 3,
      "byteOffset": 1048528,
      "componentType": 5126,
      "count": 42136,
      "max": [
        1.0,
        1.0,
        1.0,
        1.0
      ],
      "min": [
        0.0,
        0.0,
        0.0,
        1.0
      ],
      "type": "VEC4"
    },
    {
      "bufferView": 1,
      "byteOffset": 524264,
      "componentType": 5126,
      "count": 42136,
      "max": [
        0.0,
        0.0
      ],
      "min": [
        0.0,
        0.0
      ],
      "type": "VEC2"
    },
    {
      "bufferView": 0,
      "byteOffset": 292356,
      "componentType": 5125,
      "count": 49236,
      "type": "SCALAR"
    }
  ],
  "asset": {
    "extras": {
      "author": "Alexandros Sigaras (https://sketchfab.com/AlexSigaras)",
      "license": "CC-BY-4.0 (http://creativecommons.org/licenses/by/4.0/)",
      "source": "https://sketchfab.com/3d-models/protein-structure-pdb-id-1nfn1-695fc24af5d342c3a24023ed3547748b",
      "title": "Protein Structure | PDB ID 1NFN1"
    },
    "generator": "Sketchfab-12.65.0",
    "version": "2.0"
  },
  "bufferViews": [
    {
      "buffer": 0,
      "byteLength": 489300,
      "name": "floatBufferViews",
      "target": 34963
    },
    {
      "buffer": 0,
      "byteLength": 861352,
      "byteOffset": 489300,
      "byteStride": 8,
      "name": "floatBufferViews",
      "target": 34962
    },
    {
      "buffer": 0,
      "byteLength": 2584056,
      "byteOffset": 1350652,
      "byteStride": 12,
      "name": "floatBufferViews",
      "target": 34962
    },
    {
      "buffer": 0,
      "byteLength": 1722704,
      "byteOffset": 3934708,
      "byteStride": 16,
      "name": "floatBufferViews",
      "target": 34962
    }
  ],
  "buffers": [
    {
      "byteLength": 5657412,
      "uri": "scene.bin"
    }
  ],
  "materials": [
    {
      "doubleSided": true,
      "name": "material_0",
      "pbrMetallicRoughness": {
        "baseColorFactor": [
          0.8,
          0.8,
          0.8,
          1.0
        ],
        "metallicFactor": 0.0,
        "roughnessFactor": 0.6
      }
    }
  ],
  "meshes": [
    {
      "name": "Object_0",
      "primitives": [
        {
          "attributes": {
            "COLOR_0": 2,
            "NORMAL": 1,
            "POSITION": 0,
            "TEXCOORD_0": 3
          },
          "indices": 4,
          "material": 0,
          "mode": 4
        }
      ]
    },
    {
      "name": "Object_1",
      "primitives": [
        {
          "attributes": {
            "COLOR_0": 7,
            "NORMAL": 6,
            "POSITION": 5,
            "TEXCOORD_0": 8
          },
          "indices": 9,
          "material": 0,
          "mode": 4
        }
      ]
    }
  ],
  "nodes": [
    {
      "children": [
        1
      ],
      "matrix": [
        1.0,
        0.0,
        0.0,
        0.0,
        0.0,
        2.220446049250313e-16,
        -1.0,
        0.0,
        0.0,
        1.0,
        2.220446049250313e-16,
        0.0,
        0.0,
        0.0,
        0.0,
        1.0
      ],
      "name": "Sketchfab_model"
    },
    {
      "children": [
        2
      ],
      "matrix": [
        1.0,
        0.0,
        0.0,
        0.0,
        0.0,
        0.0,
        1.0,
        0.0,
        0.0,
        -1.0,
        0.0,
        0.0,
        0.0,
        0.0,
        0.0,
        1.0
      ],
      "name": "bc7ec133396c4a39ba81307bab269087.wrl.cleaner.materialmerger.gles"
    },
    {
      "children": [
        3
      ],
      "name": "ShapeCylinder_172_TRANSFORM"
    },
    {
      "children": [
        4
      ],
      "matrix": [
        0.9050110578536987,
        -0.1464872658252716,
        0.39937010407447815,
        0.0,
        0.1464872658252716,
        -0.7740945816040039,
        -0.6158888936042786,
        0.0,
        0.39937010407447815,
        0.6158888936042786,
        -0.6791056394577026,
        0.0,
        0.0,
        0.0,
        0.0,
        1.0
      ],
      "name": "Object_3"
    },
    {
      "children": [
        5
      ],
      "name": "ShapeCylinder_172_ifs_TRANSFORM"
    },
    {
      "children": [
        6,
        7
      ],
      "name": "group_ME_ShapeCylinder_172"
    },
    {
      "mesh": 0,
      "name": "Object_6"
    },
    {
      "mesh": 1,
      "name": "Object_7"
    }
  ],
  "scene": 0,
  "scenes": [
    {
      "name": "Sketchfab_Scene",
      "nodes": [
        0
      ]
    }
  ]
}
