{
  "accessors": [
    {
      "bufferView": 1,
      "componentType": 5126,
      "count": 49559,
      "max": [
        49.11859893798828,
        12.14109992980957,
        45.123199462890625
      ],
      "min": [
        -1.061750054359436,
        -35.07600021362305,
        -31.965299606323242
      ],
      "type": "VEC3"
    },
    {
      "bufferView": 1,
      "byteOffset": 594708,
      "componentType": 5126,
      "count": 49559,
      "max": [
        0.999984622001648,
        0.9998902678489685,
        0.9999899864196777
      ],
      "min": [
        -0.9999771118164063,
        -0.999987006187439,
        -0.9999614953994751
      ],
      "type": "VEC3"
    },
    {
      "bufferView": 2,
      "componentType": 5126,
      "count": 49559,
      "max": [
        1.0,
        1.0,
        1.0,
        1.0
      ],
      "min": [
        0.0,
        0.0,
        0.0,
        1.0
      ],
      "type": "VEC4"
    },
    {
      "bufferView": 0,
      "componentType": 5125,
      "count": 297333,
      "type": "SCALAR"
    },
    {
      "bufferView": 1,
      "byteOffset": 1189416,
      "componentType": 5126,
      "count": 13173,
      "max": [
        50.96979904174805,
        17.19879913330078,
        48.597599029541016
      ],
      "min": [
        -5.332250118255615,
        -35.582298278808594,
        -32.105899810791016
      ],
      "type": "VEC3"
    },
    {
      "bufferView": 2,
      "byteOffset": 792944,
      "componentType": 5126,
      "count": 13173,
      "max": [
        1.0,
        0.9019610285758972,
        1.0,
        1.0
      ],
      "min": [
        0.5607839822769165,
        0.0,
        0.0,
        1.0
      ],
      "type": "VEC4"
    },
    {
      "bufferView": 0,
      "byteOffset": 1189332,
      "componentType": 5125,
      "count": 16522,
      "type": "SCALAR"
    }
  ],
  "asset": {
    "extras": {
      "author": "tienluu (https://sketchfab.com/tienluu)",
      "license": "CC-BY-4.0 (http://creativecommons.org/licenses/by/4.0/)",
      "source": "https://sketchfab.com/3d-models/protein-molecular-dynamics-ed66adbbc86a46abb3c20ab571acd992",
      "title": "Protein molecular dynamics"
    },
    "generator": "Sketchfab-12.68.0",
    "version": "2.0"
  },
  "bufferViews": [
    {
      "buffer": 0,
      "byteLength": 1255420,
      "name": "floatBufferViews",
      "target": 34963
    },
    {
      "buffer": 0,
      "byteLength": 1347492,
      "byteOffset": 1255420,
      "byteStride": 12,
      "name": "floatBufferViews",
      "target": 34962
    },
    {
      "buffer": 0,
      "byteLength": 1003712,
      "byteOffset": 2602912,
      "byteStride": 16,
      "name": "floatBufferViews",
      "target": 34962
    }
  ],
  "buffers": [
    {
      "byteLength": 3606624,
      "uri": "scene.bin"
    }
  ],
  "materials": [
    {
      "doubleSided": true,
      "name": "Material2",
      "pbrMetallicRoughness": {
        "baseColorFactor": [
          0.996078,
          0.996078,
          0.996078,
          1.0
        ],
        "metallicFactor": 0.0,
        "roughnessFactor": 0.6
      }
    }
  ],
  "meshes": [
    {
      "name": "Material2",
      "primitives": [
        {
          "attributes": {
            "COLOR_0": 2,
            "NORMAL": 1,
            "POSITION": 0
          },
          "indices": 3,
          "material": 0,
          "mode": 4
        }
      ]
    },
    {
      "name": "Material2",
      "primitives": [
        {
          "attributes": {
            "COLOR_0": 5,
            "POSITION": 4
          },
          "indices": 6,
          "material": 0,
          "mode": 1
        }
      ]
    }
  ],
  "nodes": [
    {
      "children": [
        1
      ],
      "matrix": [
        1.0,
        0.0,
        0.0,
        0.0,
        0.0,
        2.220446049250313e-16,
        -1.0,
        0.0,
        0.0,
        1.0,
        2.220446049250313e-16,
        0.0,
        0.0,
        0.0,
        0.0,
        1.0
      ],
      "name": "Sketchfab_model"
    },
    {
      "children": [
        2
      ],
      "name": "Collada visual scene group"
    },
    {
      "children": [
        3,
        6
      ],
      "name": "Discovery"
    },
    {
      "children": [
        4
      ],
      "name": "IMeshNode0"
    },
    {
      "children": [
        5
      ],
      "name": "MeshNode0"
    },
    {
      "mesh": 0,
      "name": "Material2"
    },
    {
      "children": [
        7
      ],
      "name": "ILinesNode0"
    },
    {
      "children": [
        8
      ],
      "name": "LinesNode0"
    },
    {
      "mesh": 1,
      "name": "Material2"
    }
  ],
  "scene": 0,
  "scenes": [
    {
      "name": "Sketchfab_Scene",
      "nodes": [
        0
      ]
    }
  ]
}
