{
  "accessors": [
    {
      "bufferView": 1,
      "componentType": 5126,
      "count": 4739,
      "max": [
        -0.27681198716163635,
        -0.25398901104927063,
        0.5333060026168823
      ],
      "min": [
        -1.0883840322494507,
        -0.8003699779510498,
        -1.1297839879989624
      ],
      "type": "VEC3"
    },
    {
      "bufferView": 1,
      "byteOffset": 56868,
      "componentType": 5126,
      "count": 4739,
      "max": [
        0.9992604851722717,
        0.9969357848167419,
        0.9979430437088013
      ],
      "min": [
        -0.9992604851722717,
        -0.9969357848167419,
        -0.9979430437088013
      ],
      "type": "VEC3"
    },
    {
      "bufferView": 0,
      "componentType": 5125,
      "count": 22254,
      "type": "SCALAR"
    },
    {
      "bufferView": 1,
      "byteOffset": 113736,
      "componentType": 5126,
      "count": 1686,
      "max": [
        0.9752519726753235,
        0.16836999356746674,
        0.7785570025444031
      ],
      "min": [
        -0.20238199830055237,
        -0.5179349780082703,
        -0.10376100242137909
      ],
      "type": "VEC3"
    },
    {
      "bufferView": 1,
      "byteOffset": 133968,
      "componentType": 5126,
      "count": 1686,
      "max": [
        0.9996297955513,
        0.9983809590339661,
        0.9998160004615784
      ],
      "min": [
        -0.999053955078125,
        -0.9999991655349731,
        -0.9892421960830688
      ],
      "type": "VEC3"
    },
    {
      "bufferView": 0,
      "byteOffset": 89016,
      "componentType": 5125,
      "count": 10044,
      "type": "SCALAR"
    },
    {
      "bufferView": 1,
      "byteOffset": 154200,
      "componentType": 5126,
      "count": 7450,
      "max": [
        1.1658129692077637,
        0.11794199794530869,
        0.6635890007019043
      ],
      "min": [
        -1.2574410438537598,
        -0.42302900552749634,
        -0.21534399688243866
      ],
      "type": "VEC3"
    },
    {
      "bufferView": 1,
      "byteOffset": 243600,
      "componentType": 5126,
      "count": 7450,
      "max": [
        0.9782209992408752,
        0.999863862991333,
        0.9997557401657104
      ],
      "min": [
        -0.9782209992408752,
        -0.999863862991333,
        -0.9997557401657104
      ],
      "type": "VEC3"
    },
    {
      "bufferView": 0,
      "byteOffset": 129192,
      "componentType": 5125,
      "count": 44640,
      "type": "SCALAR"
    },
    {
      "bufferView": 1,
      "byteOffset": 333000,
      "componentType": 5126,
      "count": 1657,
      "max": [
        1.0538990497589111,
        0.202674001455307,
        0.638405978679657
      ],
      "min": [
        -0.27403900027275085,
        -0.4154930114746094,
        -0.030355000868439674
      ],
      "type": "VEC3"
    },
    {
      "bufferView": 1,
      "byteOffset": 352884,
      "componentType": 5126,
      "count": 1657,
      "max": [
        0.9999314546585083,
        0.9986472725868225,
        0.9983739256858826
      ],
      "min": [
        -0.9994035959243774,
        -0.997018039226532,
        -0.9983800053596497
      ],
      "type": "VEC3"
    },
    {
      "bufferView": 0,
      "byteOffset": 307752,
      "componentType": 5125,
      "count": 9876,
      "type": "SCALAR"
    },
    {
      "bufferView": 1,
      "byteOffset": 372768,
      "componentType": 5126,
      "count": 7450,
      "max": [
        0.9984869956970215,
        0.24729099869728088,
        0.8226670026779175
      ],
      "min": [
        -0.7709590196609497,
        -0.9534419775009155,
        -0.9202529788017273
      ],
      "type": "VEC3"
    },
    {
      "bufferView": 1,
      "byteOffset": 462168,
      "componentType": 5126,
      "count": 7450,
      "max": [
        0.9999213814735413,
        0.9997960925102234,
        0.9997273683547974
      ],
      "min": [
        -0.9999213814735413,
        -0.9997960925102234,
        -0.9997273683547974
      ],
      "type": "VEC3"
    },
    {
      "bufferView": 0,
      "byteOffset": 347256,
      "componentType": 5125,
      "count": 44640,
      "type": "SCALAR"
    },
    {
      "bufferView": 1,
      "byteOffset": 551568,
      "componentType": 5126,
      "count": 4367,
      "max": [
        -0.15305399894714355,
        -0.23213699460029602,
        0.4681589901447296
      ],
      "min": [
        -1.2629029750823975,
        -0.7967360019683838,
        -0.9596419930458069
      ],
      "type": "VEC3"
    },
    {
      "bufferView": 1,
      "byteOffset": 603972,
      "componentType": 5126,
      "count": 4367,
      "max": [
        0.9994772672653198,
        0.9910755157470703,
        0.9993746280670166
      ],
      "min": [
        -0.9994772672653198,
        -0.9910755157470703,
        -0.9993746280670166
      ],
      "type": "VEC3"
    },
    {
      "bufferView": 0,
      "byteOffset": 525816,
      "componentType": 5125,
      "count": 20934,
      "type": "SCALAR"
    },
    {
      "bufferView": 1,
      "byteOffset": 656376,
      "componentType": 5126,
      "count": 2744,
      "max": [
        0.9077450037002563,
        0.12831300497055054,
        0.6031050086021423
      ],
      "min": [
        -0.5615159869194031,
        -0.7494120001792908,
        -0.22520199418067932
      ],
      "type": "VEC3"
    },
    {
      "bufferView": 1,
      "byteOffset": 689304,
      "componentType": 5126,
      "count": 2744,
      "max": [
        0.9945653676986694,
        0.9982413053512573,
        0.9979353547096252
      ],
      "min": [
        -0.9945653676986694,
        -0.9982413053512573,
        -0.9979353547096252
      ],
      "type": "VEC3"
    },
    {
      "bufferView": 0,
      "byteOffset": 609552,
      "componentType": 5125,
      "count": 12696,
      "type": "SCALAR"
    },
    {
      "bufferView": 1,
      "byteOffset": 722232,
      "componentType": 5126,
      "count": 954,
      "max": [
        0.7167440056800842,
        0.13521899282932281,
        0.4796769917011261
      ],
      "min": [
        -0.23236000537872314,
        -0.4698989987373352,
        -0.13916200399398804
      ],
      "type": "VEC3"
    },
    {
      "bufferView": 1,
      "byteOffset": 733680,
      "componentType": 5126,
      "count": 954,
      "max": [
        0.9997156262397766,
        0.9982413053512573,
        0.9979824423789978
      ],
      "min": [
        -0.9997156262397766,
        -0.9982413053512573,
        -0.9979824423789978
      ],
      "type": "VEC3"
    },
    {
      "bufferView": 0,
      "byteOffset": 660336,
      "componentType": 5125,
      "count": 4536,
      "type": "SCALAR"
    },
    {
      "bufferView": 1,
      "byteOffset": 745128,
      "componentType": 5126,
      "count": 11490,
      "max": [
        1.0002650022506714,
        0.14189699292182922,
        0.5662819743156433
      ],
      "min": [
        -0.5214220285415649,
        -0.45544299483299255,
        -0.21334099769592285
      ],
      "type": "VEC3"
    },
    {
      "bufferView": 1,
      "byteOffset": 883008,
      "componentType": 5126,
      "count": 11490,
      "max": [
        0.9992703199386597,
        0.9982413053512573,
        0.9992212057113647
      ],
      "min": [
        -0.9992703199386597,
        -0.9982413053512573,
        -0.9992212057113647
      ],
      "type": "VEC3"
    },
    {
      "bufferView": 0,
      "byteOffset": 678480,
      "componentType": 5125,
      "count": 50280,
      "type": "SCALAR"
    },
    {
      "bufferView": 1,
      "byteOffset": 1020888,
      "componentType": 5126,
      "count": 9606,
      "max": [
        0.9129689931869507,
        0.10484199970960617,
        0.6946189999580383
      ],
      "min": [
        -0.5568040013313293,
        -0.7229369878768921,
        -0.2054000049829483
      ],
      "type": "VEC3"
    },
    {
      "bufferView": 1,
      "byteOffset": 1136160,
      "componentType": 5126,
      "count": 9606,
      "max": [
        0.9991242289543152,
        0.9989385604858398,
        0.9982167482376099
      ],
      "min": [
        -0.9991242289543152,
        -0.9989385604858398,
        -0.9982167482376099
      ],
      "type": "VEC3"
    },
    {
      "bufferView": 0,
      "byteOffset": 879600,
      "componentType": 5125,
      "count": 42024,
      "type": "SCALAR"
    }
  ],
  "asset": {
    "extras": {
      "author": "gvsuchem (https://sketchfab.com/gvsu-chem)",
      "license": "CC-BY-4.0 (http://creativecommons.org/licenses/by/4.0/)",
      "source": "https://sketchfab.com/3d-models/dna-protein-complex-leucine-zipper-93040fcbcc684563a199412d6fdd6c8b",
      "title": "DNA - Protein Complex, Leucine Zipper"
    },
    "generator": "Sketchfab-14.64.0",
    "version": "2.0"
  },
  "bufferViews": [
    {
      "buffer": 0,
      "byteLength": 1047696,
      "name": "floatBufferViews",
      "target": 34963
    },
    {
      "buffer": 0,
      "byteLength": 1251432,
      "byteOffset": 1047696,
      "byteStride": 12,
      "name": "floatBufferViews",
      "target": 34962
    }
  ],
  "buffers": [
    {
      "byteLength": 2299128,
      "uri": "scene.bin"
    }
  ],
  "materials": [
    {
      "doubleSided": true,
      "name": "vmd_mat_cindex_0",
      "pbrMetallicRoughness": {
        "baseColorFactor": [
          0.0,
          0.0,
          0.65,
          1.0
        ],
        "metallicFactor": 0.0,
        "roughnessFactor": 0.9909213306
      }
    },
    {
      "doubleSided": true,
      "name": "vmd_mat_cindex_1",
      "pbrMetallicRoughness": {
        "baseColorFactor": [
          0.65,
          0.0,
          0.0,
          1.0
        ],
        "metallicFactor": 0.0,
        "roughnessFactor": 0.9732669653
      }
    },
    {
      "doubleSided": true,
      "name": "vmd_mat_cindex_10",
      "pbrMetallicRoughness": {
        "baseColorFactor": [
          0.16,
          0.49,
          0.49,
          1.0
        ],
        "metallicFactor": 0.0,
        "roughnessFactor": 0.9183362374
      }
    },
    {
      "doubleSided": true,
      "name": "vmd_mat_cindex_11",
      "pbrMetallicRoughness": {
        "baseColorFactor": [
          1.0,
          0.0,
          1.0,
          1.0
        ],
        "metallicFactor": 0.0,
        "roughnessFactor": 0.9770805094
      }
    },
    {
      "alphaMode": "BLEND",
      "doubleSided": true,
      "name": "vmd_mat_cindex_2",
      "pbrMetallicRoughness": {
        "baseColorFactor": [
          0.0,
          1.0,
          0.0,
          0.096
        ],
        "metallicFactor": 0.0,
        "roughnessFactor": 0.9572472634
      }
    },
    {
      "doubleSided": true,
      "name": "vmd_mat_cindex_4",
      "pbrMetallicRoughness": {
        "baseColorFactor": [
          0.0,
          0.238397573812271,
          0.06124605423161758,
          1.0
        ],
        "metallicFactor": 0.0,
        "roughnessFactor": 0.8833353264
      }
    },
    {
      "alphaMode": "BLEND",
      "doubleSided": true,
      "name": "vmd_mat_cindex_5",
      "pbrMetallicRoughness": {
        "baseColorFactor": [
          1.0,
          1.0,
          0.0,
          0.1325714286
        ],
        "metallicFactor": 0.0,
        "roughnessFactor": 0.9398519293
      }
    },
    {
      "doubleSided": true,
      "name": "vmd_mat_cindex_7",
      "pbrMetallicRoughness": {
        "baseColorFactor": [
          0.0,
          1.0,
          0.0,
          1.0
        ],
        "metallicFactor": 0.0,
        "roughnessFactor": 0.9100683611
      }
    },
    {
      "doubleSided": true,
      "name": "vmd_mat_cindex_9",
      "pbrMetallicRoughness": {
        "baseColorFactor": [
          0.4019777798,
          0.2015562538,
          0.2015562538,
          1.0
        ],
        "metallicFactor": 0.0,
        "roughnessFactor": 0.9138607803
      }
    }
  ],
  "meshes": [
    {
      "name": "Object_0",
      "primitives": [
        {
          "attributes": {
            "NORMAL": 1,
            "POSITION": 0
          },
          "indices": 2,
          "material": 3,
          "mode": 4
        }
      ]
    },
    {
      "name": "Object_1",
      "primitives": [
        {
          "attributes": {
            "NORMAL": 4,
            "POSITION": 3
          },
          "indices": 5,
          "material": 4,
          "mode": 4
        }
      ]
    },
    {
      "name": "Object_2",
      "primitives": [
        {
          "attributes": {
            "NORMAL": 7,
            "POSITION": 6
          },
          "indices": 8,
          "material": 5,
          "mode": 4
        }
      ]
    },
    {
      "name": "Object_3",
      "primitives": [
        {
          "attributes": {
            "NORMAL": 10,
            "POSITION": 9
          },
          "indices": 11,
          "material": 6,
          "mode": 4
        }
      ]
    },
    {
      "name": "Object_4",
      "primitives": [
        {
          "attributes": {
            "NORMAL": 13,
            "POSITION": 12
          },
          "indices": 14,
          "material": 7,
          "mode": 4
        }
      ]
    },
    {
      "name": "Object_5",
      "primitives": [
        {
          "attributes": {
            "NORMAL": 16,
            "POSITION": 15
          },
          "indices": 17,
          "material": 8,
          "mode": 4
        }
      ]
    },
    {
      "name": "Object_6",
      "primitives": [
        {
          "attributes": {
            "NORMAL": 19,
            "POSITION": 18
          },
          "indices": 20,
          "material": 0,
          "mode": 4
        }
      ]
    },
    {
      "name": "Object_7",
      "primitives": [
        {
          "attributes": {
            "NORMAL": 22,
            "POSITION": 21
          },
          "indices": 23,
          "material": 1,
          "mode": 4
        }
      ]
    },
    {
      "name": "Object_8",
      "primitives": [
        {
          "attributes": {
            "NORMAL": 25,
            "POSITION": 24
          },
          "indices": 26,
          "material": 2,
          "mode": 4
        }
      ]
    },
    {
      "name": "Object_9",
      "primitives": [
        {
          "attributes": {
            "NORMAL": 28,
            "POSITION": 27
          },
          "indices": 29,
          "material": 2,
          "mode": 4
        }
      ]
    }
  ],
  "nodes": [
    {
      "children": [
        1
      ],
      "matrix": [
        1.0,
        0.0,
        0.0,
        0.0,
        0.0,
        2.220446049250313e-16,
        -1.0,
        0.0,
        0.0,
        1.0,
        2.220446049250313e-16,
        0.0,
        0.0,
        0.0,
        0.0,
        1.0
      ],
      "name": "Sketchfab_model"
    },
    {
      "children": [
        2,
        3,
        4,
        5,
        6,
        7,
        8,
        9,
        10,
        11
      ],
      "name": "5t01-qs-sc.obj.cleaner.materialmerger.gles"
    },
    {
      "mesh": 0,
      "name": "Object_2"
    },
    {
      "mesh": 1,
      "name": "Object_3"
    },
    {
      "mesh": 2,
      "name": "Object_4"
    },
    {
      "mesh": 3,
      "name": "Object_5"
    },
    {
      "mesh": 4,
      "name": "Object_6"
    },
    {
      "mesh": 5,
      "name": "Object_7"
    },
    {
      "mesh": 6,
      "name": "Object_8"
    },
    {
      "mesh": 7,
      "name": "Object_9"
    },
    {
      "mesh": 8,
      "name": "Object_10"
    },
    {
      "mesh": 9,
      "name": "Object_11"
    }
  ],
  "scene": 0,
  "scenes": [
    {
      "name": "Sketchfab_Scene",
      "nodes": [
        0
      ]
    }
  ]
}
